<svg xmlns="http://www.w3.org/2000/svg" width="216" height="27"><defs><filter id="a" filterUnits="userSpaceOnUse"><feFlood result="flood" flood-color="#fff"/><feComposite result="composite" operator="in" in2="SourceGraphic"/><feBlend result="blend" in2="SourceGraphic"/></filter></defs><g filter="url(#a)" fill="#2c3136"><path d="M0 23h216v1H0z"/><path data-name="Enviro Team" d="M24.357 22.439v-3.5H9.486v-4.604h8.578v-3.164H9.486V7.022h14.7V3.858H5.162v18.58h19.2zm7.122 0V12.173l12.885 10.266h2.566V7.216h-3.357v10.107L30.653 7.216H28.1v15.223h3.375zm29.042 0l8.825-15.223H65.5l-6.086 11.039-6.451-11.039h-4.2l9.211 15.223h2.549zm13.889 0V7.216h-3.691v15.223h3.691zm17.362-12.323a1.134 1.134 0 0 1 .36.949v1.758a1.134 1.134 0 0 1-.36.949 2.26 2.26 0 0 1-1.327.281h-8.473V9.835h8.473a2.262 2.262 0 0 1 1.327.281zm-9.8 12.322v-5.765h3.5l6.381 5.766h5.326l-7.242-5.766h2.092a4.324 4.324 0 0 0 2.725-.686 2.714 2.714 0 0 0 .844-2.232v-3.586a2.764 2.764 0 0 0-.844-2.259 4.284 4.284 0 0 0-2.725-.694H78.316v15.223h3.656zm20.2-12.428h12.27v9.51h-12.27v-9.51zm-3.709 8.824a3.861 3.861 0 0 0 .809 2.848 4.744 4.744 0 0 0 3.146.756H114.2a4.746 4.746 0 0 0 3.137-.756 3.833 3.833 0 0 0 .818-2.848V10.8a3.862 3.862 0 0 0-.8-2.83 4.742 4.742 0 0 0-3.155-.756h-11.782a4.746 4.746 0 0 0-3.146.756 3.832 3.832 0 0 0-.809 2.83v8.033zm52.846-11.653V3.858H129.9v3.323h8.525v15.258h4.324V7.181h8.561zM168.1 22.439v-2.848h-12.78v-3.744h7.33v-2.619h-7.33V9.905h12.586V7.216h-16.33v15.223H168.1zm3.87 0l1.916-3.34h10.072l1.916 3.34h4.166l-9.177-15.223H177.3l-9.04 15.223h3.709zm6.925-12.463l3.551 6.346h-6.978zm15.033 12.463V12.208l6.89 8.4h.721l6.8-8.648v10.479h3.445V7.216H208.8l-7.418 9.035-7.453-9.035h-2.971v15.223h2.971z" fill-rule="evenodd"/></g></svg>