<?xml version="1.0" encoding="UTF-8"?>
<svg width="100%" height="100%" viewBox="0 0 18 19" version="1.1" xmlns="http://www.w3.org/2000/svg" xmlns:xlink="http://www.w3.org/1999/xlink">
    <!-- Generator: Sketch 49.3 (51167) - http://www.bohemiancoding.com/sketch -->
    <title>Combined Shape</title>
    <desc>Created with Sketch.</desc>
    <defs></defs>
    <g id="Home-Page" stroke="none" stroke-width="1" fill="none" fill-rule="evenodd">
        <g id="Home-Page-2" transform="translate(-231.000000, -1586.000000)" fill="#FFFFFF">
            <g id="Newest-Products" transform="translate(42.000000, 1210.000000)">
                <g id="Row-1" transform="translate(79.000000, 83.000000)">
                    <g id="Item.1">
                        <g id="Add-Action" transform="translate(37.000000, 282.181818)">
                            <g id="Add.Btn" transform="translate(47.000000, 1.055718)">
                                <g id="Btn.Content" transform="translate(26.000000, 8.000000)">
                                    <path d="M0,13.25 L18,13.25 L18,14.75 L0,14.75 L0,13.25 Z M1.5,10.25 L6,10.25 L6,11.75 L1.5,11.75 L1.5,10.25 Z M3,5 L3,3.5 L0,3.5 L0,2 L3.75,2 C4.164,2 4.5,2.336 4.5,2.75 L4.5,4.25 L15.75,4.25 C15.981,4.25 16.19925,4.3565 16.341,4.53875 C16.48275,4.721 16.53375,4.958 16.4775,5.18225 L14.79525,11.90975 L13.34025,11.546 L14.78925,5.75 L3.75,5.75 C3.336,5.75 3,5.414 3,5 Z M3,7.24999999 L7.5,7.24999999 L7.5,8.74999999 L3,8.74999999 L3,7.24999999 Z M5.45082525,16.7991747 C6.1830585,17.531408 6.1830585,18.718592 5.45082525,19.4508252 C4.718592,20.1830583 3.531408,20.1830583 2.79917475,19.4508252 C2.0669415,18.718592 2.0669415,17.531408 2.79917475,16.7991747 C3.531408,16.0669415 4.718592,16.0669415 5.45082525,16.7991747 Z M16.7008275,16.7991747 C17.43306,17.531408 17.43306,18.718592 16.7008275,19.4508252 C15.968595,20.1830583 14.781405,20.1830583 14.0491725,19.4508252 C13.31694,18.718592 13.31694,17.531408 14.0491725,16.7991747 C14.781405,16.0669415 15.968595,16.0669415 16.7008275,16.7991747 Z" id="Combined-Shape"></path>
                                </g>
                            </g>
                        </g>
                    </g>
                </g>
            </g>
        </g>
    </g>
</svg>