<?xml version="1.0" encoding="UTF-8"?>
<svg width="84px" height="84px" viewBox="0 0 84 84" version="1.1" xmlns="http://www.w3.org/2000/svg" xmlns:xlink="http://www.w3.org/1999/xlink">
    <!-- Generator: Sketch 49.3 (51167) - http://www.bohemiancoding.com/sketch -->
    <title>Trash</title>
    <desc>Created with Sketch.</desc>
    <defs>
        <filter x="-4.8%" y="-15.8%" width="109.5%" height="135.6%" filterUnits="objectBoundingBox" id="filter-1">
            <feOffset dx="0" dy="6" in="SourceAlpha" result="shadowOffsetOuter1"></feOffset>
            <feGaussianBlur stdDeviation="18" in="shadowOffsetOuter1" result="shadowBlurOuter1"></feGaussianBlur>
            <feColorMatrix values="0 0 0 0 0   0 0 0 0 0   0 0 0 0 0  0 0 0 0.06 0" type="matrix" in="shadowBlurOuter1" result="shadowMatrixOuter1"></feColorMatrix>
            <feMerge>
                <feMergeNode in="shadowMatrixOuter1"></feMergeNode>
                <feMergeNode in="SourceGraphic"></feMergeNode>
            </feMerge>
        </filter>
    </defs>
    <g id="Shopping-Cart" stroke="none" stroke-width="1" fill="none" fill-rule="evenodd">
        <g transform="translate(-1195.000000, -400.000000)" fill="#C0C4D1" fill-rule="nonzero" id="Checkout/Payment-04">
            <g transform="translate(0.000000, 127.000000)">
                <g id="Cart-Table" filter="url(#filter-1)" transform="translate(120.000000, 180.000000)">
                    <g id="Item.1" transform="translate(0.000000, 63.000000)">
                        <g id="Trash" transform="translate(1109.000000, 57.000000)">
                            <rect id="Rectangle-path" x="5" y="7" width="2" height="6"></rect>
                            <rect id="Rectangle-path" x="9" y="7" width="2" height="6"></rect>
                            <path d="M12,1 C12,0.4 11.6,0 11,0 L5,0 C4.4,0 4,0.4 4,1 L4,3 L0,3 L0,5 L1,5 L1,15 C1,15.6 1.4,16 2,16 L14,16 C14.6,16 15,15.6 15,15 L15,5 L16,5 L16,3 L12,3 L12,1 Z M6,2 L10,2 L10,3 L6,3 L6,2 Z M13,5 L13,14 L3,14 L3,5 L13,5 Z" id="Shape"></path>
                        </g>
                    </g>
                </g>
            </g>
        </g>
    </g>
</svg>