<svg xmlns="http://www.w3.org/2000/svg" xmlns:xlink="http://www.w3.org/1999/xlink" width="216" height="27" viewBox="0 0 216 27">
  <metadata><?xpacket begin="﻿" id="W5M0MpCehiHzreSzNTczkc9d"?>
<x:xmpmeta xmlns:x="adobe:ns:meta/" x:xmptk="Adobe XMP Core 5.6-c140 79.160451, 2017/05/06-01:08:21        ">
   <rdf:RDF xmlns:rdf="http://www.w3.org/1999/02/22-rdf-syntax-ns#">
      <rdf:Description rdf:about=""/>
   </rdf:RDF>
</x:xmpmeta>
                                                                                                    
                                                                                                    
                                                                                                    
                                                                                                    
                                                                                                    
                                                                                                    
                                                                                                    
                                                                                                    
                                                                                                    
                                                                                                    
                                                                                                    
                                                                                                    
                                                                                                    
                                                                                                    
                                                                                                    
                                                                                                    
                                                                                                    
                                                                                                    
                                                                                                    
                                                                                                    
                           
<?xpacket end="w"?></metadata>
<defs>
    <style>
      .cls-1 {
        filter: url(#filter);
      }

      .cls-2, .cls-3 {
        fill: #2c3136;
      }

      .cls-3 {
        fill-rule: evenodd;
      }
    </style>
    <filter id="filter" filterUnits="userSpaceOnUse">
      <feFlood result="flood" flood-color="#fff"/>
      <feComposite result="composite" operator="in" in2="SourceGraphic"/>
      <feBlend result="blend" in2="SourceGraphic"/>
    </filter>
  </defs>
  <g class="cls-1">
    <rect class="cls-2" y="23" width="216" height="1"/>
    <path id="Enviro_Team" data-name="Enviro Team" class="cls-3" d="M24.357,22.439v-3.5H9.486V14.335h8.578V11.171H9.486V7.022h14.7V3.858H5.162v18.58h19.2Zm7.122,0V12.173L44.364,22.439h2.566V7.216H43.573V17.323L30.653,7.216H28.1V22.439h3.375Zm29.042,0L69.346,7.216H65.5L59.414,18.255,52.963,7.216h-4.2l9.211,15.223h2.549Zm13.889,0V7.216H70.719V22.439h3.691ZM91.772,10.116a1.134,1.134,0,0,1,.36.949v1.758a1.134,1.134,0,0,1-.36.949,2.26,2.26,0,0,1-1.327.281H81.972V9.835h8.473A2.262,2.262,0,0,1,91.772,10.116Zm-9.8,12.322V16.673h3.5l6.381,5.766h5.326l-7.242-5.766h2.092a4.324,4.324,0,0,0,2.725-.686,2.714,2.714,0,0,0,.844-2.232V10.169a2.764,2.764,0,0,0-.844-2.259,4.284,4.284,0,0,0-2.725-.694H78.316V22.439h3.656Zm20.2-12.428h12.27v9.51h-12.27v-9.51Zm-3.709,8.824a3.861,3.861,0,0,0,.809,2.848,4.744,4.744,0,0,0,3.146.756H114.2a4.746,4.746,0,0,0,3.137-.756,3.833,3.833,0,0,0,.818-2.848V10.8a3.862,3.862,0,0,0-.8-2.83,4.742,4.742,0,0,0-3.155-.756H102.418a4.746,4.746,0,0,0-3.146.756,3.832,3.832,0,0,0-.809,2.83v8.033ZM151.309,7.181V3.858H129.9V7.181h8.525V22.439h4.324V7.181h8.561ZM168.1,22.439V19.591h-12.78V15.847h7.33V13.228h-7.33V9.905h12.586V7.216h-16.33V22.439H168.1Zm3.87,0,1.916-3.34h10.072l1.916,3.34h4.166L180.863,7.216H177.3L168.26,22.439h3.709Zm6.925-12.463,3.551,6.346h-6.978Zm15.033,12.463V12.208l6.89,8.4h0.721l6.8-8.648V22.439h3.445V7.216H208.8l-7.418,9.035-7.453-9.035h-2.971V22.439h2.971Z"/>
  </g>
</svg>
