<?xml version="1.0" encoding="UTF-8"?>
<svg width="100%" height="100%" viewBox="0 0 42 42" version="1.1" xmlns="http://www.w3.org/2000/svg" xmlns:xlink="http://www.w3.org/1999/xlink">
    
    <g id="Easy-Quote" stroke="none" stroke-width="1" fill="none" fill-rule="evenodd">
        <g transform="translate(-586.000000, -321.000000)" fill="#2C3E50" id="Group">
            <g transform="translate(546.000000, 297.000000)">
                <g id="Chat-Copy" transform="translate(16.000000, 0.000000)">
                    <path d="M45,24 C33.4210345,24 24,33.4210345 24,45 C24,56.5789655 33.4210345,66 45,66 C51.819931,66 58.2285517,62.6747586 62.1664138,57.0988966 C62.2243448,57.0424138 62.2706897,56.9757931 62.3068966,56.901931 C62.9644138,55.5376552 62.6023448,54.5108276 62.1837931,53.8895172 C61.0961379,52.2761379 58.3168966,51.5114483 55.862069,51.5027586 L55.862069,50.5512414 C55.862069,49.4882069 54.996,48.6206897 53.930069,48.6206897 C53.1451034,48.6206897 52.5035172,48.2948276 51.7605517,47.9197241 C51.3043448,47.688 50.8336552,47.4490345 50.3050345,47.2752414 C49.6286897,47.042069 48.8393793,47.2216552 48.3107586,47.7531724 L46.2976552,49.8966207 C43.4329655,48.3426207 41.6371034,46.5453103 40.1033793,43.7023448 L42.2555172,41.6747586 C42.7711034,41.1591724 42.9550345,40.4075172 42.7334483,39.7036552 L42.4828966,38.967931 C42.0426207,37.6934483 41.3793103,35.7657931 41.3793103,34.6216552 C41.3793103,33.5557241 40.5132414,32.6896552 39.4473103,32.6896552 L34.6202069,32.6896552 C33.5557241,32.6896552 32.6896552,33.5557241 32.6896552,34.6216552 C32.6896552,46.7075172 42.6146897,57.3103448 53.930069,57.3103448 C54.996,57.3103448 55.862069,56.4442759 55.862069,55.3783448 L55.862069,52.9495862 C58.1170345,52.9466897 60.2851034,53.6664828 60.9831724,54.6991034 C61.2742759,55.1321379 61.2974483,55.6013793 61.0497931,56.1676552 C61.0497931,56.1691034 61.0483448,56.1705517 61.0483448,56.172 C57.3871034,61.4191034 51.3883448,64.5517241 45,64.5517241 C34.2190345,64.5517241 25.4482759,55.7809655 25.4482759,45 C25.4482759,34.2204828 34.2190345,25.4482759 45,25.4482759 C55.7809655,25.4482759 64.5517241,34.2204828 64.5517241,45 C64.5517241,45.3997241 64.8761379,45.7241379 65.2758621,45.7241379 C65.6755862,45.7241379 66,45.3997241 66,45 C66,33.4210345 56.5789655,24 45,24" id="Fill-2310"></path>
                </g>
            </g>
        </g>
    </g>
</svg>