<?xml version="1.0" encoding="UTF-8"?>
<svg width="60px" height="60px" viewBox="0 0 60 60" version="1.1" xmlns="http://www.w3.org/2000/svg" xmlns:xlink="http://www.w3.org/1999/xlink">
    <!-- Generator: Sketch 49.3 (51167) - http://www.bohemiancoding.com/sketch -->
    <title>Icon</title>
    <desc>Created with Sketch.</desc>
    <defs></defs>
    <g id="About-Page" stroke="none" stroke-width="1" fill="none" fill-rule="evenodd">
        <g id="About" transform="translate(-691.000000, -935.000000)">
            <g id="CTA-block" transform="translate(121.000000, 907.000000)">
                <g id="Center.Col" transform="translate(498.000000, 29.000000)">
                    <g id="Icon" transform="translate(73.000000, 0.000000)">
                        <circle id="Circle" stroke="#408AF8" fill="#408AF8" cx="29" cy="29" r="29"></circle>
                        <path d="M29.4287934,14 L20.6354221,22.7933713 C15.7881926,27.6406007 15.7881926,35.5173485 20.6354221,40.3645779 C23.0590368,42.7881926 26.2439151,44 29.4287934,44 C32.6136717,44 35.79855,42.7881926 38.2221647,40.3645779 C43.0693941,35.5173485 43.0693941,27.6406007 38.2221647,22.7933713 L29.4287934,14 Z M29.4287934,40.9083376 C26.9430347,40.9083376 24.5970999,39.9451062 22.8415329,38.1740031 C21.0704298,36.4029001 20.1071983,34.0725013 20.1071983,31.5867426 C20.1071983,29.1009839 21.0704298,26.7550492 22.8415329,24.9994821 L29.4287934,18.3966857 L29.4287934,40.9083376 L29.4287934,40.9083376 Z" id="Shape" fill="#F9F9FB"></path>
                    </g>
                </g>
            </g>
        </g>
    </g>
</svg>