<?xml version="1.0" encoding="UTF-8"?>
<svg width="100%" height="100%" viewBox="0 0 42 42" version="1.1" xmlns="http://www.w3.org/2000/svg" xmlns:xlink="http://www.w3.org/1999/xlink">
    
    <g id="Easy-Quote" stroke="none" stroke-width="1" fill="none" fill-rule="evenodd">
        <g transform="translate(-808.000000, -321.000000)" fill="#2C3E50" id="Group">
            <g transform="translate(546.000000, 297.000000)">
                <g id="Chat-Copy-2" transform="translate(236.000000, 0.000000)">
                    <g id="Group-4" transform="translate(26.000000, 24.000000)">
                        <path d="M32.6102,26.6 L22.6058,36.61 C22.4742,36.736 22.4,36.918 22.4,37.1 L22.4,41.3 C22.4,41.692 22.7136,42 23.1,42 L27.3,42 C27.4862,42 27.664,41.93 27.7956,41.804 L37.8,31.794 L32.6102,26.6" id="Fill-4106"></path>
                        <path d="M41.7942,26.81 L37.5942,22.61 C37.3212,22.33 36.8788,22.33 36.6044,22.61 L33.6,25.62 L38.7898,30.8 L41.7942,27.804 C42.0686,27.524 42.0686,27.076 41.7942,26.81" id="Fill-4107"></path>
                        <path d="M22.4,15.358 L22.4,16.1 C22.4,16.492 22.0864,16.8 21.7,16.8 C21.3136,16.8 21,16.492 21,16.1 L21,15.358 C19.4712,15.148 18.3148,14.2646 18.2028,13.132 C18.165,12.754 18.4464,12.404 18.8314,12.376 C19.229,12.334 19.5594,12.614 19.5972,12.992 C19.6336,13.37 20.1922,13.776 21,13.93 L21,11.7866 C19.8926,11.578 18.2,11.06 18.2,9.45 C18.2,8.246 19.3844,7.266 21,7.056 L21,6.3 C21,5.922 21.3136,5.6 21.7,5.6 C22.0864,5.6 22.4,5.922 22.4,6.3 L22.4,7.056 C23.9288,7.266 25.0852,8.148 25.1972,9.268 C25.235,9.66 24.9536,9.996 24.5686,10.038 C24.1752,10.08 23.8406,9.8 23.8028,9.408 C23.7664,9.03 23.2078,8.6366 22.4,8.484 L22.4,10.612 C23.5046,10.836 25.2,11.354 25.2,12.95 C25.2,14.154 24.0156,15.134 22.4,15.358 L22.4,15.358 Z M23.1,26.6 L3.5,26.6 C3.1136,26.6 2.8,26.292 2.8,25.9 C2.8,25.522 3.1136,25.2 3.5,25.2 L23.1,25.2 C23.4864,25.2 23.8,25.522 23.8,25.9 C23.8,26.292 23.4864,26.6 23.1,26.6 L23.1,26.6 Z M10.5,33.6 L3.5,33.6 C3.1136,33.6 2.8,33.292 2.8,32.9 C2.8,32.5206 3.1136,32.2 3.5,32.2 L10.5,32.2 C10.8864,32.2 11.2,32.5206 11.2,32.9 C11.2,33.292 10.8864,33.6 10.5,33.6 L10.5,33.6 Z M9.8,2.394 L9.8,9.8 L2.3898,9.8 L9.8,2.394 L9.8,2.394 Z M11.9,18.2 C12.2864,18.2 12.6,18.522 12.6,18.9 C12.6,19.292 12.2864,19.6 11.9,19.6 L3.5,19.6 C3.1136,19.6 2.8,19.292 2.8,18.9 C2.8,18.522 3.1136,18.2 3.5,18.2 L11.9,18.2 L11.9,18.2 Z M30.1,0 L10.5,0 C10.409,0 10.318,0.028 10.2326,0.056 C10.1472,0.098 10.0688,0.14 10.0044,0.21 L0.2058,10.01 C0.1414,10.08 0.0896,10.15 0.0532,10.234 C0.0182,10.318 0,10.416 0,10.5 L0,37.1 C0,37.492 0.3136,37.8 0.7,37.8 L20.3,37.8 C20.6864,37.8 21,37.492 21,37.1 C21,36.554 21.224,36.008 21.6146,35.616 L30.5956,26.642 C30.7258,26.502 30.8,26.334 30.8,26.138 L30.8,0.7 C30.8,0.322 30.4864,0 30.1,0 L30.1,0 Z" id="Fill-4108"></path>
                    </g>
                </g>
            </g>
        </g>
    </g>
</svg>